<svg version="1.0" xmlns="http://www.w3.org/2000/svg" width="16114.7" height="3546.7" viewBox="0 0 12086 2660">
  <path d="M3177 212v98h521V114h-521v98zM97 904v789h195V311h471l470 1-12 8a1242 1242 0 0 0-257 231 1217 1217 0 0 0 871 1994l932 1h930V758h-195v1592h-945l16-11a1212 1212 0 0 0 214-183l15-16 43-51a1209 1209 0 0 0-86-1612 1176 1176 0 0 0-432-282 1211 1211 0 0 0-372-79l-929-1H97v789zm1840-592a1013 1013 0 0 1 713 334 1014 1014 0 0 1 201 1036 14240 14240 0 0 1-174-232l-201-270-67-88-33 26-289 242-158 132-91 76-76 64-67 56-119 99-136 113-88 74-138 114a1020 1020 0 0 1-271-393c-8-23-9-26-8-27l178-138 59-46a448639 448639 0 0 1 242-186l45 54 104 126 61 72 66-55 55-45 29-25-18-22-101-122-104-125-107-130-103 80-40 30-131 102-189 146-91 71-5 4-1-3-6-61a1015 1015 0 0 1 274-760 1017 1017 0 0 1 785-323zm522 1174c45 60 93 123 105 141l189 252c1 1-3 7-17 29a1015 1015 0 0 1-1358 300l23-20 155-129 76-64 228-190 63-53 223-186 73-61 85-71c70-59 71-60 72-59l83 110zM8236 741a416 416 0 0 0-381 352c-3 22-4 38-4 65a404 404 0 0 0 153 325c68 55 147 85 240 89 61 2 112-5 166-25 75-27 147-85 196-157a397 397 0 0 0 67-264 408 408 0 0 0-223-341c-64-34-139-49-215-44zm66 149a252 252 0 0 1 143 73 261 261 0 0 1 78 194 255 255 0 0 1-74 191 261 261 0 0 1-446-171c-3-45 4-90 19-127a252 252 0 0 1 126-136c28-14 54-22 90-25 9-1 54 0 64 1zM10464 741a413 413 0 0 0-385 416c0 98 30 186 90 261 66 81 146 130 243 147 53 10 116 10 168-1 58-12 111-36 158-72a409 409 0 0 0 164-312 400 400 0 0 0-125-323 401 401 0 0 0-313-116zm67 150a248 248 0 0 1 162 95c24 29 41 64 50 99 13 50 12 108-3 157-25 84-98 156-181 177a264 264 0 0 1-231-50c-54-43-85-98-94-167a306 306 0 0 1 14-145 282 282 0 0 1 87-119c38-28 80-44 131-49 10-1 55 0 65 2zM4053 1157v396h75l75-1v-356h243v-145h-243V907h243V760h-393v397zM4812 1156v396l75 1h75V760h-150v396zM5375 1157v396h370v-144h-220V760h-150v397zM6092 1157v396h75l75-1V761h-150v397zM6731 763l-68 393-69 394v3h147l1-6 86-493 84 249 83 249 66 1c62 0 66 0 67-2a59585 59585 0 0 0 168-497l42 244 42 249 1 6h146v-2a223945 223945 0 0 1-133-788v-3h-147l-7 21-178 530-92-275-92-276h-147v3zM9060 1157v396h75l75-1 1-259 1-259 169 260 169 259h144V760h-150v261l-1 261-169-261-169-261h-145v397zM11228 761l141 397 139 395h73c67 0 72 0 73-2a145187 145187 0 0 0 285-790l-77-1h-78l-100 281-102 281-100-281-99-281h-78l-77 1zM5500 2072a239 239 0 0 0-220 211c-2 15-2 48 0 63a230 230 0 0 0 89 158 234 234 0 0 0 153 52c21 0 29-1 38-2 52-8 93-29 131-66 34-33 55-68 66-111 12-49 10-103-6-149-18-48-55-93-101-121-42-26-97-39-150-35zm39 45a193 193 0 0 1 178 204c-1 33-7 57-21 85-19 36-47 64-84 84-29 14-57 21-91 21-26 0-51-4-70-12-62-24-109-80-121-141-16-86 17-167 87-211 37-24 79-34 121-30zM6800 2072c-49 4-85 16-121 41a243 243 0 0 0-104 231c6 53 27 98 65 137 42 44 92 68 152 74 16 2 49 1 64-2 51-7 96-30 133-67 39-39 61-84 69-140a236 236 0 0 0-209-272c-12-2-41-3-49-2zm46 46a204 204 0 0 1 147 109c13 26 18 48 19 81a192 192 0 0 1-169 202c-13 1-40 2-52 0-38-5-70-19-100-44-34-28-57-66-66-107a202 202 0 0 1 106-222 186 186 0 0 1 115-18zM7596 2072a240 240 0 0 0-160 411c38 39 86 62 145 71 16 2 54 3 71 1 56-5 101-24 137-58 41-38 65-96 67-162l1-11-100-1h-99v45h74l73 1-7 31c-4 11-12 26-19 37-9 14-30 34-45 44-32 21-65 31-108 31-36 0-67-7-97-21a198 198 0 0 1-116-178 193 193 0 0 1 99-167c66-37 138-38 209-4 24 13 43 25 68 48l5 4 18-17 17-16-2-3-35-29a287 287 0 0 0-196-57zM4016 2314v231h46v-215h32c36 0 70-1 91-3 41-5 67-16 89-39 16-16 25-35 29-60 2-11 1-36 0-46-6-30-20-53-43-70-21-17-43-24-80-27l-89-2h-75v231zm155-185c32 3 47 8 61 21 42 40 28 111-26 128-19 7-42 8-101 7h-43v-157h48l61 1zM4628 2314v231h46v-223h235v223h46v-462h-46v194h-235v-194h-46v231zM6043 2106v22h103v417h47v-417h103v-45h-253v23zM8178 2314l1 230 23 1h23v-215h26l83 108 83 107h28l28-1-82-107-83-106 15-1c42-2 70-9 93-24 25-17 42-41 49-72 2-11 2-37 1-49-8-45-37-78-80-92-23-8-40-9-131-10h-77v231zm169-184c24 4 37 9 50 22 9 9 15 18 19 30 3 10 4 30 2 42-4 15-14 32-25 41-22 18-45 22-125 20h-43v-157h57l65 2zM8973 2087l-216 457 26 1h25l36-76 36-75h199l36 75 37 76h24l25-1-107-230-108-230-5-1c-6 0-6 0-8 4zm49 181 37 79-79 1h-79l39-81 39-83c2-3-3-12 43 85zM9504 2314v231h46v-215h32c36 0 70-1 91-3 41-5 67-16 89-39 16-16 25-35 29-60 2-11 1-36 0-46-6-30-20-53-43-70-21-17-43-24-80-27l-89-2h-75v231zm155-185c32 3 47 8 61 21 42 40 28 111-26 128-19 7-42 8-101 7h-43v-157h48l61 1zM10116 2314v231h45l1-112v-111h235v223h46v-462h-46v194h-235v-194h-46v231zM10751 2084l74 119 73 120 1 111 1 111h45v-221l72-118 73-121 1-2h-53l-57 94-58 95c-1 1-14-19-60-94l-59-95h-27l-26 1z"/>
</svg>
